<?xml version="1.0" encoding="UTF-8"?>
<svg xmlns="http://www.w3.org/2000/svg" xmlns:xlink="http://www.w3.org/1999/xlink" width="1920pt" height="480pt" viewBox="0 0 1920 480" version="1.1">
<defs>
<filter id="alpha" filterUnits="objectBoundingBox" x="0%" y="0%" width="100%" height="100%">
  <feColorMatrix type="matrix" in="SourceGraphic" values="0 0 0 0 1 0 0 0 0 1 0 0 0 0 1 0 0 0 1 0"/>
</filter>
<mask id="mask0">
  <g filter="url(#alpha)">
<rect x="0" y="0" width="1920" height="480" style="fill:rgb(0%,0%,0%);fill-opacity:0.109804;stroke:none;"/>
  </g>
</mask>
<linearGradient id="linear0" gradientUnits="userSpaceOnUse" x1="0.5" y1="0" x2="0.5" y2="1" gradientTransform="matrix(1920.183594,0,0,479.835937,0,0)">
<stop offset="0" style="stop-color:rgb(21.176471%,10.980392%,75.686275%);stop-opacity:1;"/>
<stop offset="1" style="stop-color:rgb(18.039216%,50.980392%,93.72549%);stop-opacity:1;"/>
</linearGradient>
<clipPath id="clip1">
  <rect x="0" y="0" width="1920" height="480"/>
</clipPath>
<g id="surface5" clip-path="url(#clip1)">
<path style=" stroke:none;fill-rule:nonzero;fill:url(#linear0);" d="M 0 270.960938 C 0 270.960938 100.429688 378 401.207031 356.378906 C 701.980469 334.757812 843.273438 360.652344 938.835938 407.652344 C 1034.398438 454.65625 1290.925781 449.734375 1519.824219 431.019531 C 1748.71875 412.300781 1882.988281 449.660156 1920.183594 479.835938 C 1920.199219 479.84375 1919.808594 0.0117188 1919.808594 0.0117188 L 0.0429688 0 Z M 0 270.960938 "/>
</g>
<linearGradient id="linear1" gradientUnits="userSpaceOnUse" x1="0.5" y1="0" x2="0.5" y2="1" gradientTransform="matrix(1920.097656,0,0,479.832031,0.0585938,0.00390625)">
<stop offset="0" style="stop-color:rgb(21.176471%,10.980392%,75.686275%);stop-opacity:1;"/>
<stop offset="1" style="stop-color:rgb(18.039216%,50.980392%,93.72549%);stop-opacity:1;"/>
</linearGradient>
<clipPath id="clip2">
  <path d="M 0.0585938 271.03125 C 0.0585938 271.03125 95.328125 362.121094 401.269531 342.917969 C 707.210938 323.714844 820.925781 328.597656 945.457031 386.140625 C 1069.988281 443.683594 1289.433594 434.113281 1518.363281 416.058594 C 1747.296875 398.003906 1878.554688 446.464844 1920.15625 479.835938 C 1920.195312 478.765625 1920.082031 0.00390625 1920.082031 0.00390625 L 0.0820312 0.0078125 Z M 0.0585938 271.03125 "/>
</clipPath>
<mask id="mask1">
  <g filter="url(#alpha)">
<rect x="0" y="0" width="1920" height="480" style="fill:rgb(0%,0%,0%);fill-opacity:0.141176;stroke:none;"/>
  </g>
</mask>
<clipPath id="clip3">
  <rect x="0" y="0" width="1920" height="480"/>
</clipPath>
<g id="surface8" clip-path="url(#clip3)">
<path style="fill:none;stroke-width:128;stroke-linecap:butt;stroke-linejoin:miter;stroke:rgb(21.176471%,10.980392%,75.686275%);stroke-opacity:1;stroke-miterlimit:4;" d="M -496.366344 321.287085 C -496.366344 321.287085 -322.124156 -70.7594 321.063344 66.253719 C 964.25475 203.266837 1190.481313 143.722566 1377.227406 -397.727499 " transform="matrix(1,0,0,0.446097,522.089,163.475688)"/>
</g>
</defs>
<g id="surface1">
<use xlink:href="#surface5" mask="url(#mask0)"/>
<path style=" stroke:none;fill-rule:nonzero;fill:url(#linear1);" d="M 0.0585938 271.03125 C 0.0585938 271.03125 95.328125 362.121094 401.269531 342.917969 C 707.210938 323.714844 820.925781 328.597656 945.457031 386.140625 C 1069.988281 443.683594 1289.433594 434.113281 1518.363281 416.058594 C 1747.296875 398.003906 1878.554688 446.464844 1920.15625 479.835938 C 1920.195312 478.765625 1920.082031 0.00390625 1920.082031 0.00390625 L 0.0820312 0.0078125 Z M 0.0585938 271.03125 "/>
<g clip-path="url(#clip2)" clip-rule="nonzero">
<use xlink:href="#surface8" mask="url(#mask1)"/>
</g>
</g>
</svg>
